<svg xmlns="http://www.w3.org/2000/svg" width="32" height="32" fill="none"><path fill="#EBF5FA" d="M5.635 2.614c-.279.191-.558.381-.825.585a3.793 3.793 0 011.207 2.793v5.728a23.114 23.114 0 013.72-2.972c10.554-6.908 18.047-1.51 18.047-1.51C22.945-.155 13.027-2.225 5.635 2.613z"/><path fill="#EBF5FA" d="M27.784 7.237s1.55 8.547-9.004 15.456C8.214 29.601 1 24.763 1 24.763c4.839 7.391 14.757 9.461 22.149 4.623 7.404-4.839 9.474-14.757 4.635-22.149z"/><path fill="#72B5DB" d="M20.418 15.428c0 1.118-.788 1.855-1.804 1.855H10.97c.38 1.752 1.6 2.667 3.327 2.667 1.067 0 1.956-.33 2.744-.915a1.44 1.44 0 01.94-.305c.863 0 1.498.66 1.498 1.524a1.515 1.515 0 01-.508 1.144c-1.194 1.015-2.743 1.65-4.724 1.65-4.09 0-7.113-2.87-7.113-7.035v-.05c0-3.887 2.77-7.088 6.731-7.088 4.547 0 6.554 3.734 6.554 6.554v-.001zm-3.683-.559c-.229-1.726-1.245-2.895-2.87-2.895-1.6 0-2.642 1.143-2.947 2.895h5.817z"/></svg>